M48
; DRILL file {KiCad 9.0.6} date 2026-03-31T19:02:24+0200
; FORMAT={-:-/ absolute / metric / decimal}
; #@! TF.CreationDate,2026-03-31T19:02:24+02:00
; #@! TF.GenerationSoftware,Kicad,Pcbnew,9.0.6
; #@! TF.FileFunction,Plated,1,2,PTH
FMAT,2
METRIC
; #@! TA.AperFunction,Plated,PTH,ViaDrill
T1C0.300
; #@! TA.AperFunction,Plated,PTH,ComponentDrill
T2C0.889
; #@! TA.AperFunction,Plated,PTH,ComponentDrill
T3C1.000
; #@! TA.AperFunction,Plated,PTH,ComponentDrill
T4C1.500
%
G90
G05
T1
X87.66Y-120.706
X90.17Y-115.57
X90.932Y-129.54
X90.932Y-136.144
X91.189Y-123.348
X93.98Y-117.856
X94.488Y-119.38
X94.488Y-132.97
X97.028Y-123.952
X97.256Y-125.278
X97.536Y-131.6
X100.584Y-130.4
X101.092Y-127.0
X108.9Y-104.5
X109.22Y-127.0
X110.236Y-120.396
X113.8Y-119.3
X114.4Y-86.4
X119.5Y-99.7
X123.6Y-98.0
X135.3Y-118.9
T2
X90.3Y-86.8
X90.3Y-89.34
X90.3Y-91.88
X90.3Y-94.42
X90.3Y-96.96
X90.3Y-99.5
X90.3Y-102.04
X105.54Y-86.8
X105.54Y-89.34
X105.54Y-91.88
X105.54Y-94.42
X105.54Y-96.96
X105.54Y-99.5
X105.54Y-102.04
T3
X167.7Y-87.52
X167.7Y-90.06
X167.7Y-92.6
X167.7Y-95.14
T4
X117.634Y-106.997
X117.634Y-126.047
X123.984Y-104.457
X123.984Y-123.507
X136.684Y-106.997
X136.684Y-126.047
X143.034Y-104.457
X143.034Y-123.507
X155.734Y-106.997
X155.734Y-126.047
X162.084Y-104.457
X162.084Y-123.507
M30
